<svg width="55" height="55" viewBox="0 0 55 55" fill="none" xmlns="http://www.w3.org/2000/svg">
<g clip-path="url(#clip0_47_1006)">
<path d="M27.5 55C42.6878 55 55 42.6878 55 27.5C55 12.3122 42.6878 0 27.5 0C12.3122 0 0 12.3122 0 27.5C0 42.6878 12.3122 55 27.5 55Z" fill="#FFC200"/>
<path fill-rule="evenodd" clip-rule="evenodd" d="M46.8008 47.0866C41.6111 52.202 34.6029 55.048 27.3161 54.9995C20.0292 54.9509 13.0596 52.0117 7.93848 46.8276C8.59341 45.0164 9.86547 43.4939 11.5313 42.5273C12.654 41.6972 13.8714 41.0035 15.1579 40.4608C13.2018 33.7388 18.5193 30.4343 20.5538 29.483C20.5538 32.5863 23.4596 30.5269 27.0657 30.5661C30.0347 30.599 35.9058 33.5875 35.9058 29.6449C39.172 30.6115 42.7319 36.8359 40.2818 40.6601C41.2863 41.1513 42.2354 41.7486 43.1128 42.4418C44.828 43.5333 46.1269 45.1685 46.8008 47.0866Z" fill="#677079"/>
<path fill-rule="evenodd" clip-rule="evenodd" d="M21.3877 34.4241L34.6661 34.5042V37.563L34.6598 37.6102C34.6506 37.7487 34.6298 37.8863 34.5975 38.0213L34.5531 38.3248L34.5263 38.388C33.6666 42.9037 29.9047 44.6489 27.5819 45.8646C25.1345 44.5315 21.6743 42.1294 21.3993 37.8798L21.3877 37.8273V37.6493C21.3858 37.5879 21.3846 37.5265 21.3842 37.4651C21.3842 37.4971 21.3868 37.5274 21.3877 37.5594V34.4241Z" fill="#F9DCA4"/>
<path opacity="0.11" fill-rule="evenodd" clip-rule="evenodd" d="M34.6671 34.368V37.9323C34.6645 38.2627 34.6362 38.5924 34.5825 38.9184C34.5151 39.3219 34.4017 39.7164 34.2443 40.094C29.6307 43.5783 22.2796 40.7206 21.1057 34.7694L34.6671 34.368Z" fill="black"/>
<path fill-rule="evenodd" clip-rule="evenodd" d="M16.1121 22.4584C11.7156 23.5886 15.4535 28.9463 18.2186 28.9231C17.1035 26.9253 16.388 24.7296 16.1121 22.4584Z" fill="#F9DCA4"/>
<path fill-rule="evenodd" clip-rule="evenodd" d="M39.0137 22.4584C43.4102 23.5886 39.6723 28.9463 36.9062 28.9222C38.0217 26.9248 38.7375 24.7294 39.0137 22.4584Z" fill="#F9DCA4"/>
<path fill-rule="evenodd" clip-rule="evenodd" d="M27.3514 10.111C45.6163 10.111 38.4983 38.9869 27.3514 38.9869C16.8231 38.9869 9.08655 10.111 27.3514 10.111Z" fill="#FFE8BE"/>
<path fill-rule="evenodd" clip-rule="evenodd" d="M18.7312 19.6728C18.887 19.8436 19.0025 20.0472 19.0693 20.2685C19.1361 20.4898 19.1524 20.7233 19.1171 20.9518C19.0817 21.1803 18.9956 21.3979 18.8651 21.5887C18.7345 21.7796 18.5629 21.9387 18.3627 22.0544C17.0722 23.1161 17.0251 26.8184 17.0251 26.8184C16.5267 26.3236 16.5383 23.6732 15.4578 22.1416C14.3774 20.61 13.6494 9.89294 19.6914 5.99576C19.3201 6.43247 19.0526 6.94759 18.9088 7.50246C18.7649 8.05734 18.7487 8.63758 18.8611 9.19965C18.8611 9.19965 23.0582 3.18078 30.0213 3.35433C29.4693 3.65533 28.9869 4.06926 28.6055 4.56916C28.2242 5.06905 27.9524 5.64369 27.808 6.25563C27.808 6.25563 33.8954 3.74414 38.9682 6.73177C37.6493 7.0963 36.4019 7.68223 35.2793 8.46454C37.7427 8.53218 40.1234 8.98962 41.9184 10.5862C41.5321 10.7103 41.1746 10.9105 40.8669 11.175C40.5592 11.4395 40.3077 11.763 40.1272 12.1264C39.9467 12.4898 39.8408 12.8857 39.8158 13.2906C39.7909 13.6956 39.8473 14.1015 39.9819 14.4843C40.7437 17.6019 40.8149 20.5023 40.0771 22.0615C39.3393 23.6207 38.9913 22.6142 38.5294 25.8839C38.5068 26.1048 38.4331 26.3174 38.3142 26.5049C38.1952 26.6924 38.0343 26.8497 37.8442 26.9644C37.8264 27.2011 38.1841 23.6216 37.2612 22.6685C36.3392 21.7162 36.9186 20.5459 37.287 19.8535C39.8591 15.0236 32.1564 12.8352 27.9459 12.8405C24.2944 12.845 15.4863 14.5048 18.7312 19.6728Z" fill="#8A5C42"/>
<path fill-rule="evenodd" clip-rule="evenodd" d="M17.6125 43.7528C17.6392 43.7866 26.8843 55.7522 37.7526 43.5748C36.4399 47.1809 30.7779 50.0449 27.5393 50.036C21.354 50.0182 17.9312 45.0521 17.6125 43.7528Z" fill="#434955"/>
<path fill-rule="evenodd" clip-rule="evenodd" d="M32.338 54.5756C31.9731 54.6397 31.6064 54.6958 31.2371 54.7465V46.7928C31.2506 46.6596 31.3157 46.537 31.4185 46.4512C31.5213 46.3654 31.6536 46.3232 31.7871 46.3336C31.9207 46.3229 32.0532 46.365 32.1562 46.4509C32.2592 46.5367 32.3244 46.6595 32.338 46.7928V54.5756ZM23.5985 54.7234C23.2294 54.6706 22.8624 54.6112 22.4976 54.5454V46.7928C22.5111 46.6596 22.5762 46.537 22.679 46.4512C22.7818 46.3654 22.9141 46.3232 23.0476 46.3336C23.1813 46.3227 23.3141 46.3647 23.4173 46.4505C23.5204 46.5364 23.5858 46.6593 23.5993 46.7928L23.5985 54.7234Z" fill="#E6E6E6"/>
</g>
<defs>
<clipPath id="clip0_47_1006">
<rect width="55" height="55" fill="white"/>
</clipPath>
</defs>
</svg>
