<svg width="25" height="23" viewBox="0 0 25 23" fill="none" xmlns="http://www.w3.org/2000/svg">
<line x1="2.875" y1="0.261372" x2="21.4318" y2="0.261372" stroke="#1C1C3F" stroke-width="0.522727"/>
<line x1="0.26123" y1="5.22727" x2="23.784" y2="5.22727" stroke="#1C1C3F" stroke-width="0.522727"/>
<path d="M0.522461 5.35796C0.522461 5.35796 1.56442 8.21341 3.00542 8.10226C4.33716 7.99954 5.35769 5.61931 5.35769 5.61931C5.35769 5.61931 6.27816 8.1065 7.57928 8.10226C8.80622 8.09827 9.80087 5.88067 9.80087 5.88067C9.80087 5.88067 10.7955 8.10226 12.0225 8.10226C13.2494 8.10226 14.2441 5.88067 14.2441 5.88067C14.2441 5.88067 15.3086 7.84514 16.4656 7.8409C17.6926 7.8364 18.6872 5.61931 18.6872 5.61931C18.6872 5.61931 19.6886 7.71245 20.9088 7.8409C22.2801 7.98525 23.5225 5.35796 23.5225 5.35796" stroke="#1C1C3F" stroke-width="0.522727"/>
<line x1="0.552894" y1="5.10554" x2="3.16653" y2="0.139626" stroke="#1C1C3F" stroke-width="0.522727"/>
<line x1="23.548" y1="5.0778" x2="21.1957" y2="0.111889" stroke="#1C1C3F" stroke-width="0.522727"/>
<line x1="2.87513" y1="8.88637" x2="2.87513" y2="19.8636" stroke="#1C1C3F" stroke-width="0.522727"/>
<line x1="21.4318" y1="8.625" x2="21.4318" y2="19.8636" stroke="#1C1C3F" stroke-width="0.522727"/>
<circle cx="12.2842" cy="12.0227" r="2.70511" stroke="#1C1C3F" stroke-width="0.339773"/>
<g clip-path="url(#clip0_65_963)">
<circle cx="12.1535" cy="19.733" r="4.40398" stroke="#1C1C3F" stroke-width="0.339773"/>
</g>
<line x1="0.522949" y1="20.125" x2="24.0457" y2="20.125" stroke="#1C1C3F" stroke-width="0.522727"/>
<line x1="13.5908" y1="22.7386" x2="24.0454" y2="22.7386" stroke="#1C1C3F" stroke-width="0.522727"/>
<line x1="0.522949" y1="22.7386" x2="10.9775" y2="22.7386" stroke="#1C1C3F" stroke-width="0.522727"/>
<line x1="0.261586" y1="23" x2="0.261585" y2="19.8636" stroke="#1C1C3F" stroke-width="0.522727"/>
<line x1="23.784" y1="23" x2="23.784" y2="19.8636" stroke="#1C1C3F" stroke-width="0.522727"/>
<defs>
<clipPath id="clip0_65_963">
<rect width="9.14773" height="4.18182" fill="white" transform="translate(7.57959 15.1591)"/>
</clipPath>
</defs>
</svg>
