<svg width="32" height="32" viewBox="0 0 32 32" fill="none" xmlns="http://www.w3.org/2000/svg">
<g clip-path="url(#clip0_47_1121)">
<path d="M30.5113 6.13965H13.5949C13.1925 6.13965 12.8677 5.81878 12.8677 5.42128C12.8677 5.02378 13.1925 4.70291 13.5949 4.70291H30.5113C30.9137 4.70291 31.2386 5.02378 31.2386 5.42128C31.2386 5.81878 30.9137 6.13965 30.5113 6.13965Z" fill="#E64424"/>
<path d="M5.7069 6.13965H1.48386C1.08144 6.13965 0.756592 5.81878 0.756592 5.42128C0.756592 5.02378 1.08144 4.70291 1.48386 4.70291H5.7069C6.10932 4.70291 6.43417 5.02378 6.43417 5.42128C6.43417 5.81878 6.10932 6.13965 5.7069 6.13965Z" fill="#E64424"/>
<path d="M9.65831 10.0332C7.07892 10.0332 4.98438 7.96429 4.98438 5.42127C4.98438 2.87346 7.07892 0.804565 9.65831 0.804565C12.2329 0.804565 14.3274 2.87346 14.3274 5.42127C14.3226 7.96429 12.2329 10.0332 9.65831 10.0332ZM9.65831 2.2413C7.88377 2.2413 6.43892 3.66846 6.43892 5.42127C6.43892 7.17409 7.88377 8.59646 9.65831 8.59646C11.4329 8.59646 12.8729 7.17409 12.8729 5.42127C12.868 3.66846 11.428 2.2413 9.65831 2.2413Z" fill="#E64424"/>
<path d="M30.5111 17.0013H24.2615C23.859 17.0013 23.5342 16.6805 23.5342 16.283C23.5342 15.8855 23.859 15.5646 24.2615 15.5646H30.5111C30.9136 15.5646 31.2384 15.8855 31.2384 16.283C31.2384 16.6805 30.9136 17.0013 30.5111 17.0013Z" fill="#E64424"/>
<path d="M16.3736 17.0013H1.48386C1.08144 17.0013 0.756592 16.6805 0.756592 16.283C0.756592 15.8855 1.08144 15.5646 1.48386 15.5646H16.3736C16.776 15.5646 17.1008 15.8855 17.1008 16.283C17.1008 16.6805 16.776 17.0013 16.3736 17.0013Z" fill="#E64424"/>
<path d="M20.3251 20.8949C17.7457 20.8949 15.6511 18.826 15.6511 16.283C15.6511 13.7352 17.7457 11.6663 20.3251 11.6663C22.8996 11.6663 24.9942 13.7352 24.9942 16.283C24.9893 18.826 22.8948 20.8949 20.3251 20.8949ZM20.3251 13.103C18.5505 13.103 17.1057 14.5302 17.1057 16.283C17.1057 18.0358 18.5505 19.4582 20.3251 19.4582C22.0996 19.4582 23.5396 18.0358 23.5396 16.283C23.5348 14.5302 22.0948 13.103 20.3251 13.103Z" fill="#E64424"/>
<path d="M30.5116 27.8631H15.5346C15.1322 27.8631 14.8074 27.5422 14.8074 27.1447C14.8074 26.7472 15.1322 26.4263 15.5346 26.4263H30.5116C30.914 26.4263 31.2389 26.7472 31.2389 27.1447C31.2389 27.5422 30.914 27.8631 30.5116 27.8631Z" fill="#E64424"/>
<path d="M7.64629 27.8631H1.48386C1.08144 27.8631 0.756592 27.5422 0.756592 27.1447C0.756592 26.7472 1.08144 26.4263 1.48386 26.4263H7.64629C8.04871 26.4263 8.37356 26.7472 8.37356 27.1447C8.37356 27.5422 8.04871 27.8631 7.64629 27.8631Z" fill="#E64424"/>
<path d="M11.5973 31.7614C9.01788 31.7614 6.92334 29.6877 6.92334 27.1447C6.92334 24.6017 9.01788 22.5328 11.5973 22.5328C14.1718 22.5328 16.2664 24.6017 16.2664 27.1447C16.2615 29.6925 14.1718 31.7614 11.5973 31.7614ZM11.5973 23.9695C9.82273 23.9695 8.37788 25.3919 8.37788 27.1447C8.37788 28.8975 9.82273 30.3247 11.5973 30.3247C13.3718 30.3247 14.8118 28.8975 14.8118 27.1447C14.807 25.3919 13.367 23.9695 11.5973 23.9695Z" fill="#E64424"/>
</g>
<defs>
<clipPath id="clip0_47_1121">
<rect width="32" height="32" fill="white"/>
</clipPath>
</defs>
</svg>
