<svg width="19" height="34" viewBox="0 0 19 34" fill="none" xmlns="http://www.w3.org/2000/svg">
<rect x="0.269475" y="5.19739" width="17.9386" height="28.5328" rx="0.809524" stroke="#1C1C3F" stroke-width="0.539683"/>
<rect x="2.73334" y="11.8496" width="13.2574" height="6.60525" rx="0.809524" stroke="#1C1C3F" stroke-width="0.539683"/>
<rect x="3.76984" y="0.269841" width="10.7937" height="8.08351" rx="0.809524" fill="white" stroke="#1C1C3F" stroke-width="0.539683"/>
<rect x="1.97119" y="21.6812" width="3.44928" height="0.985507" rx="0.492754" fill="#1C1C3F"/>
<rect x="7.63782" y="21.6812" width="3.44928" height="0.985507" rx="0.492754" fill="#1C1C3F"/>
<rect x="13.3046" y="21.6812" width="3.44928" height="0.985507" rx="0.492754" fill="#1C1C3F"/>
<rect x="1.97119" y="24.6377" width="3.44928" height="0.985507" rx="0.492754" fill="#1C1C3F"/>
<rect x="7.63782" y="24.6377" width="3.44928" height="0.985507" rx="0.492754" fill="#1C1C3F"/>
<rect x="13.3046" y="24.6377" width="3.44928" height="0.985507" rx="0.492754" fill="#1C1C3F"/>
<rect x="1.97119" y="27.5942" width="3.44928" height="0.985507" rx="0.492754" fill="#1C1C3F"/>
<rect x="7.63782" y="27.5942" width="3.44928" height="0.985507" rx="0.492754" fill="#1C1C3F"/>
<rect x="13.3046" y="27.5942" width="3.44928" height="0.985507" rx="0.492754" fill="#1C1C3F"/>
<rect x="1.97119" y="30.5507" width="3.44928" height="0.985507" rx="0.492754" fill="#1C1C3F"/>
<rect x="7.63782" y="30.5507" width="3.44928" height="0.985507" rx="0.492754" fill="#1C1C3F"/>
<rect x="13.3046" y="30.5507" width="3.44928" height="0.985507" rx="0.492754" fill="#1C1C3F"/>
</svg>
